<?xml version="1.0" encoding="utf-8"?>
<!-- Generator: Adobe Illustrator 17.0.0, SVG Export Plug-In . SVG Version: 6.00 Build 0)  -->
<!DOCTYPE svg PUBLIC "-//W3C//DTD SVG 1.1//EN" "http://www.w3.org/Graphics/SVG/1.1/DTD/svg11.dtd">
<svg version="1.1" xmlns="http://www.w3.org/2000/svg" xmlns:xlink="http://www.w3.org/1999/xlink" x="0px" y="0px" width="877px"
	 height="766px" viewBox="0 0 877 766" enable-background="new 0 0 877 766" xml:space="preserve">
<g id="BAll">
	<circle fill="#00ACED" cx="444.337" cy="388.335" r="255.737"/>
</g>
<g id="Text">
	<g>
		<g>
			<path fill="#FFFFFF" d="M275.899,572.031c-26.52-1.532-23.936-45.642-48.232-52.399c0-89.433,0-178.866,0-268.299
				c24.314-5.946,22.099-48.929,47.946-50.836c-0.019,14.916-0.048,29.832-0.074,44.748c-13.081,2.471-20.726,15.187-28.286,24.82
				c-0.018,21.722-0.037,43.444-0.057,65.165c8.305-4.91,17.003-9.393,26.701-10.685c-0.064,34.117-0.129,68.234-0.194,102.351
				c-12.295-0.912-16.539-3.727-26.585-7.607c-0.024,26.351-0.048,52.701-0.07,79.052c7.676,9.93,15.377,22.886,28.933,25.093
				C275.953,539.634,275.923,555.833,275.899,572.031z"/>
			<path fill="#FFFFFF" d="M358.723,624.492c-9.074-3.741-13.57-5.419-21.11-5.621c-0.003-2.694-0.008-5.06-0.023-11.396
				c-1.975,5.29-4.239,7.671-6.799,8.246c-2.56,0.575-6.281-1.432-11.403-5.918c-5.078-4.448-10.361-10.373-15.438-19.213
				c-7.251-12.627-10.067-26.847-12.403-40.834c-5.058-30.294-4.588-62.58-4.557-93.597c0.033-33.179,1.055-66.77,3.515-99.789
				c1.93-25.908,4.383-52.855,11.147-77.572c3.32-12.133,7.096-29.481,18.578-36.034c4.029-2.299,7.722-1.019,10.168,3.624
				c2.449,4.649,4.486,11.381,6.178,20.296c-0.108-36.228-0.252-72.455-0.296-108.683c7.535-0.038,12.101-1.954,21.31-5.995
				C357.795,309.501,358.475,466.996,358.723,624.492z M337.415,544.193c-0.165-56.249-0.338-112.497-0.509-168.746
				c-2.224-10.847-4.135-18.44-5.533-22.917c-1.398-4.477-3.934-6.946-5.094-6.37c-6.531,3.248-7.839,21.973-9.222,32.553
				c-3.576,27.367-3.792,55.916-3.749,83.7c0.039,25.226-0.163,51.285,4.258,76.291c2.721,15.393,5.909,23.439,9.269,25.337
				c2.764,1.561,4.852,0.441,6.382-3.415C334.746,556.772,336.145,551.383,337.415,544.193z"/>
			<path fill="#FFFFFF" d="M472.637,529.522c-0.039,31.195,1.793,65.448-6.519,95.739c-4.151,15.126-10.311,17.126-17.972,17.546
				c-12.938,0.5-25.478-2.335-38.17-4.334c-0.164-167.138-0.392-334.277-0.549-501.415c10.686-1.706,21.146-3.397,31.925-4.407
				c4.41-0.156,8.436,0.357,11.844,2.042c3.408,1.686,6.176,4.436,8.276,9.546c2.1,5.109,3.692,12.495,4.698,23.4
				c1.312,14.22,1.522,28.63,1.529,42.835c0.011,19.786-0.577,39.887-1.633,59.68c-0.908,17.005-1.973,34.283-3.988,51.166
				c-1.182,9.899-4.799,22.102-4.755,29.672c0.107,18.535,9.162,48.274,11.446,72.565
				C472.062,458.611,472.681,494.316,472.637,529.522z M446.951,239.529c-0.013-16.961,1.069-35.651-3.446-51.815
				c-2.033-7.278-5.768-10.531-10.268-10.083c-1.697,0.169-2.534,0.264-4.198,0.465c0.013,46.721,0.03,93.441,0.046,140.162
				c1.693-0.068,2.546-0.1,4.275-0.158c4.579-0.154,8.163-5.848,10.274-16.668C447.551,281.365,446.966,259.87,446.951,239.529z
				 M450.5,524.167c0.016-15.922,6.332-77.54-13.237-86.246c-3.34-0.062-4.951-0.104-8.136-0.194
				c0.018,51.708,0.037,103.415,0.052,155.123c3.167,0.377,4.77,0.55,8.099,0.793C455.929,589.45,450.488,536.334,450.5,524.167z"/>
			<path fill="#FFFFFF" d="M541.945,616.49c-2.907,3.431-5.656,5.845-8.198,7.72c-2.542,1.875-5.629,3.396-9.242,4.912
				c-3.422,1.436-5.799,2.063-7.135,0.652c-1.337-1.411-2.852-9.407-2.852-9.407c-0.162-0.018-4.645,10.384-7.286,13.007
				c-2.641,2.622-6.068,3.834-10.088,3.948c-3.882,0.11-6.989-0.11-9.378-2.423c-2.39-2.313-4.105-6.535-5.018-14.615
				c-1.213-10.741-1.354-21.649-1.411-32.426c-0.105-19.801,0.714-39.89,2.565-59.737c1.444-15.484,3.359-31.028,6.754-46.185
				c3.007-13.422,6.818-26.737,11.2-39.792c2.693-8.023,4.76-14.169,6.166-18.364c1.406-4.19,2.462-7.451,3.16-9.786
				c0.697-2.33,1.867-5.664,2.208-8.985c1.76-17.143-0.162-38.607-1.647-57.818c-1.076-13.915-4.311-21.725-7.035-21.319
				c-7.159,1.069-9.977,18.426-11.573,25.48c-4.955,21.896-7.256,45.391-9.824,68.228c0.052-45.94,0.103-91.881,0.155-137.821
				c2.1-11.834,4.135-23.627,7.708-35.061c2.692-8.615,5.58-14.866,8.554-18.548c2.973-3.683,6.233-5.126,9.133-4.235
				c13.368,4.107,15.99,28.223,18.079,39.831c6.354,35.31,6.133,72.974,6.38,109.417c0.165,58.485,0.33,116.971,0.496,175.456
				c0.077,9.37,0.03,18.79,0.673,28.092c0.381,5.504,1.146,7.827,2.196,7.533c1.274-0.357,2.987-3.465,5.1-9.842
				C541.839,588.431,541.892,602.46,541.945,616.49z M513.392,580.727c0.004-32.405,0.003-64.811,0.003-97.216
				c-4.08,14.249-7.781,28.698-10.336,43.253c-2.583,14.717-3.221,29.875-3.232,44.838c-0.009,12.151,0.497,20.136,1.554,25.256
				c1.056,5.12,2.297,7.198,3.729,6.878c1.358-0.304,2.722-2.421,4.086-6.695C510.559,592.769,511.959,587.424,513.392,580.727z"/>
			<path fill="#FFFFFF" d="M567.532,612.007c-7.211,6.492-10.768,7.627-18.447,8.327c-0.469-155.043-1.574-310.085-1.979-465.128
				c7.566,0.739,11.279,1.609,18.741,7.64C566.178,312.567,567.147,462.286,567.532,612.007z"/>
			<path fill="#FFFFFF" d="M598.945,585.887c-7.45,1.601-11.026,5.459-18.198,12.762c-0.157-141.124-1.085-282.247-1.169-423.371
				c7.454,6.798,11.179,10.393,18.689,11.795C598.285,320.012,598.879,452.949,598.945,585.887z"/>
			<path fill="#FFFFFF" d="M674.333,462.967c0.087,10.982-0.757,22.834-5.966,32.694c-6.463,12.235-15.469,23.636-22.952,35.316
				c-5.384,8.404-10.769,17.043-16.77,25.008c-4.754,6.31-9.97,11.986-14.961,14.367c-0.024-18.568-0.055-37.136-0.084-55.704
				c4.384,6.435,8.589,8.362,12.22,8.283c3.631-0.079,7.732-3.622,12.219-9.219c6.281-7.835,11.235-17.359,11.22-27.659
				c-0.005-3.311-0.534-5.86-1.606-7.656c-1.073-1.794-2.951-3.327-5.664-4.954c-2.71-1.626-6.897-3.553-10.884-6.966
				c-8.5-7.278-11.052-20.048-13.703-30.923c-5.118-20.999-5.249-44.447-5.256-66.358c-0.005-17.306,0.336-35.48,3.297-52.253
				c1.777-10.063,3.266-21.982,11.028-28.952c4.627-4.155,11.657-0.921,19.067,6.269c1.782,1.729,4.042,4.249,6.705,7.333
				c2.663,3.082,5.972,7.659,9.639,12.913c3.667,5.256,6.844,10.591,9.507,16.193c0.001,17.249,0.002,34.498,0.004,51.747
				c-1.252-2.79-2.374-5.233-3.299-7.262c-0.925-2.027-2.192-4.366-3.872-7.141c-1.679-2.773-3.73-5.496-6.202-8.25
				c-2.471-2.752-5.113-4.743-7.888-5.722c-3.374-1.19-5.762,0.107-7.045,4.305c-1.282,4.195-1.924,8.801-1.919,13.523
				c0.005,4.924,0.688,9.616,2.032,13.794c1.346,4.183,4.372,9.276,8.832,14.259c6.427,7.181,11.111,13.202,14.329,19.268
				c3.219,6.069,5.189,12.637,6.325,19.731C673.824,446.045,674.265,454.41,674.333,462.967z"/>
		</g>
	</g>
</g>
</svg>
